<?xml version="1.0" encoding="UTF-8"?>
<svg xmlns="http://www.w3.org/2000/svg" viewBox="0 0 32 32" width="32" height="32" shape-rendering="crispEdges">
  <!-- Cyan #00FFFF -->
  <g fill="#00FFFF">
    <rect x="8" y="2" width="16" height="2"/>
    <rect x="8" y="4" width="4" height="2"/>
    <rect x="20" y="4" width="4" height="2"/>
    <rect x="6" y="6" width="4" height="2"/>
    <rect x="22" y="6" width="4" height="2"/>
    <rect x="4" y="8" width="4" height="2"/>
    <rect x="24" y="8" width="4" height="2"/>
    <rect x="4" y="10" width="2" height="2"/>
    <rect x="26" y="10" width="2" height="2"/>
    <rect x="6" y="12" width="4" height="2"/>
    <rect x="22" y="12" width="4" height="2"/>
    <rect x="8" y="14" width="4" height="2"/>
    <rect x="20" y="14" width="4" height="2"/>
    <rect x="10" y="16" width="4" height="2"/>
    <rect x="18" y="16" width="4" height="2"/>
    <rect x="12" y="18" width="4" height="2"/>
    <rect x="16" y="18" width="4" height="2"/>
    <rect x="14" y="20" width="4" height="2"/>
    <rect x="8" y="22" width="4" height="2"/>
    <rect x="20" y="22" width="4" height="2"/>
    <rect x="6" y="24" width="4" height="2"/>
    <rect x="22" y="24" width="4" height="2"/>
    <rect x="8" y="26" width="16" height="2"/>
    <rect x="14" y="28" width="4" height="2"/>
  </g>
  <!-- White #FFFFFF -->
  <g fill="#FFFFFF">
    <rect x="12" y="2" width="8" height="2"/>
    <rect x="12" y="4" width="4" height="2"/>
    <rect x="16" y="4" width="4" height="2"/>
    <rect x="10" y="6" width="4" height="2"/>
    <rect x="18" y="6" width="4" height="2"/>
    <rect x="8" y="8" width="4" height="2"/>
    <rect x="20" y="8" width="4" height="2"/>
    <rect x="10" y="12" width="4" height="2"/>
    <rect x="18" y="12" width="4" height="2"/>
    <rect x="12" y="14" width="4" height="2"/>
    <rect x="16" y="14" width="4" height="2"/>
    <rect x="14" y="16" width="4" height="2"/>
    <rect x="12" y="22" width="4" height="2"/>
    <rect x="16" y="22" width="4" height="2"/>
    <rect x="10" y="24" width="4" height="2"/>
    <rect x="18" y="24" width="4" height="2"/>
    <rect x="12" y="26" width="8" height="2"/>
  </g>
  <!-- Ice Blue #00BFFF -->
  <g fill="#00BFFF">
    <rect x="6" y="10" width="4" height="2"/>
    <rect x="22" y="10" width="4" height="2"/>
    <rect x="2" y="12" width="4" height="2"/>
    <rect x="26" y="12" width="4" height="2"/>
    <rect x="2" y="14" width="4" height="2"/>
    <rect x="26" y="14" width="4" height="2"/>
    <rect x="6" y="18" width="4" height="2"/>
    <rect x="22" y="18" width="4" height="2"/>
    <rect x="2" y="20" width="4" height="2"/>
    <rect x="26" y="20" width="4" height="2"/>
    <rect x="2" y="22" width="4" height="2"/>
    <rect x="26" y="22" width="4" height="2"/>
    <rect x="6" y="26" width="4" height="2"/>
    <rect x="22" y="26" width="4" height="2"/>
    <rect x="10" y="28" width="4" height="2"/>
    <rect x="18" y="28" width="4" height="2"/>
  </g>
  <!-- Light Cyan #E0FFFF -->
  <g fill="#E0FFFF">
    <rect x="14" y="0" width="4" height="2"/>
    <rect x="14" y="30" width="4" height="2"/>
    <rect x="0" y="14" width="2" height="4"/>
    <rect x="30" y="14" width="2" height="4"/>
  </g>
</svg>