<?xml version="1.0" encoding="UTF-8"?>
<svg xmlns="http://www.w3.org/2000/svg" viewBox="0 0 32 32" width="32" height="32" shape-rendering="crispEdges">
  <!-- Green #4CAF50 -->
  <g fill="#4CAF50">
    <rect x="10" y="4" width="12" height="2"/>
    <rect x="8" y="6" width="16" height="2"/>
    <rect x="6" y="8" width="20" height="2"/>
    <rect x="6" y="10" width="20" height="2"/>
    <rect x="6" y="12" width="8" height="2"/>
    <rect x="18" y="12" width="8" height="2"/>
    <rect x="6" y="14" width="8" height="2"/>
    <rect x="18" y="14" width="8" height="2"/>
    <rect x="6" y="16" width="8" height="2"/>
    <rect x="18" y="16" width="8" height="2"/>
    <rect x="8" y="18" width="16" height="2"/>
    <rect x="10" y="20" width="12" height="2"/>
    <rect x="10" y="22" width="4" height="2"/>
    <rect x="18" y="22" width="4" height="2"/>
    <rect x="12" y="24" width="8" height="2"/>
  </g>
  <!-- Dark Green #1B5E20 -->
  <g fill="#1B5E20">
    <rect x="10" y="4" width="2" height="2"/>
    <rect x="20" y="4" width="2" height="2"/>
    <rect x="8" y="6" width="2" height="2"/>
    <rect x="22" y="6" width="2" height="2"/>
    <rect x="6" y="8" width="2" height="12"/>
    <rect x="24" y="8" width="2" height="12"/>
    <rect x="14" y="12" width="4" height="2"/>
    <rect x="12" y="14" width="2" height="2"/>
    <rect x="18" y="14" width="2" height="2"/>
    <rect x="14" y="16" width="4" height="2"/>
    <rect x="8" y="18" width="2" height="2"/>
    <rect x="22" y="18" width="2" height="2"/>
    <rect x="10" y="20" width="2" height="2"/>
    <rect x="20" y="20" width="2" height="2"/>
    <rect x="12" y="22" width="2" height="2"/>
    <rect x="18" y="22" width="2" height="2"/>
    <rect x="12" y="24" width="2" height="2"/>
    <rect x="18" y="24" width="2" height="2"/>
  </g>
  <!-- Eye sockets #0D3B0D -->
  <g fill="#0D3B0D">
    <rect x="10" y="10" width="4" height="4"/>
    <rect x="18" y="10" width="4" height="4"/>
  </g>
  <!-- Nose #0D3B0D -->
  <g fill="#0D3B0D">
    <rect x="14" y="14" width="4" height="2"/>
  </g>
  <!-- Teeth #81C784 -->
  <g fill="#81C784">
    <rect x="10" y="18" width="4" height="2"/>
    <rect x="18" y="18" width="4" height="2"/>
    <rect x="14" y="20" width="4" height="2"/>
  </g>
  <!-- Bubbles #81C784 -->
  <g fill="#81C784">
    <rect x="4" y="2" width="4" height="4"/>
    <rect x="24" y="0" width="4" height="4"/>
    <rect x="2" y="22" width="4" height="4"/>
    <rect x="26" y="24" width="4" height="4"/>
    <rect x="0" y="10" width="2" height="2"/>
    <rect x="30" y="16" width="2" height="2"/>
  </g>
  <!-- Bubble outlines #1B5E20 -->
  <g fill="#1B5E20">
    <rect x="4" y="2" width="4" height="2"/>
    <rect x="4" y="4" width="2" height="2"/>
    <rect x="24" y="0" width="4" height="2"/>
    <rect x="26" y="2" width="2" height="2"/>
    <rect x="2" y="22" width="4" height="2"/>
    <rect x="2" y="24" width="2" height="2"/>
    <rect x="26" y="24" width="4" height="2"/>
    <rect x="28" y="26" width="2" height="2"/>
    <rect x="0" y="10" width="2" height="2"/>
    <rect x="30" y="16" width="2" height="2"/>
  </g>
</svg>