<?xml version="1.0" encoding="UTF-8"?>
<svg xmlns="http://www.w3.org/2000/svg" viewBox="0 0 32 32" shape-rendering="crispEdges">
  <!-- Portal outer glow -->
  <rect x="3" y="18" width="3" height="8" fill="#DA70D6"/>
  <rect x="26" y="18" width="3" height="8" fill="#DA70D6"/>
  <rect x="6" y="16" width="20" height="2" fill="#DA70D6"/>
  <rect x="3" y="26" width="26" height="3" fill="#DA70D6"/>
  <!-- Portal ring outer -->
  <rect x="6" y="18" width="20" height="11" fill="#4B0082"/>
  <!-- Portal ring inner -->
  <rect x="8" y="20" width="16" height="7" fill="#8B00FF"/>
  <!-- Portal rim top -->
  <rect x="6" y="20" width="20" height="2" fill="#9370DB"/>
  <rect x="8" y="18" width="16" height="2" fill="#9370DB"/>
  <!-- Portal rim sides -->
  <rect x="6" y="22" width="2" height="5" fill="#9370DB"/>
  <rect x="24" y="22" width="2" height="5" fill="#9370DB"/>
  <!-- Portal rim bottom -->
  <rect x="6" y="27" width="20" height="2" fill="#9370DB"/>
  <!-- Portal inner glow -->
  <rect x="10" y="22" width="12" height="3" fill="#DA70D6"/>
  <!-- Figure head -->
  <rect x="12" y="3" width="8" height="6" fill="#FFD700"/>
  <rect x="13" y="4" width="6" height="4" fill="#FFF8DC"/>
  <!-- Figure body -->
  <rect x="11" y="9" width="10" height="8" fill="#FFD700"/>
  <rect x="12" y="10" width="4" height="3" fill="#FFF8DC"/>
  <rect x="16" y="10" width="4" height="3" fill="#FFF8DC"/>
  <rect x="13" y="13" width="6" height="4" fill="#FFD700"/>
  <!-- Figure arms -->
  <rect x="7" y="11" width="4" height="4" fill="#FFD700"/>
  <rect x="21" y="11" width="4" height="4" fill="#FFD700"/>
  <rect x="9" y="11" width="2" height="4" fill="#FFF8DC"/>
  <rect x="21" y="11" width="2" height="4" fill="#FFF8DC"/>
  <!-- Figure emerging legs -->
  <rect x="12" y="17" width="3" height="4" fill="#FFD700"/>
  <rect x="17" y="17" width="3" height="4" fill="#FFD700"/>
  <!-- Portal overlap figure -->
  <rect x="12" y="20" width="8" height="2" fill="#FFD700"/>
  <rect x="12" y="20" width="8" height="1" fill="#FFF8DC"/>
  <!-- Magic sparkles -->
  <rect x="2" y="8" width="3" height="3" fill="#FF69B4"/>
  <rect x="1" y="9" width="1" height="1" fill="#FFD700"/>
  <rect x="27" y="8" width="3" height="3" fill="#FF69B4"/>
  <rect x="30" y="9" width="1" height="1" fill="#FFD700"/>
  <rect x="0" y="14" width="3" height="3" fill="#FF69B4"/>
  <rect x="29" y="14" width="3" height="3" fill="#FF69B4"/>
  <rect x="4" y="28" width="3" height="3" fill="#FF69B4"/>
  <rect x="3" y="29" width="1" height="1" fill="#FFD700"/>
  <rect x="25" y="28" width="3" height="3" fill="#FF69B4"/>
  <rect x="28" y="29" width="1" height="1" fill="#FFD700"/>
  <rect x="2" y="12" width="2" height="2" fill="#FFD700"/>
  <rect x="28" y="12" width="2" height="2" fill="#FFD700"/>
</svg>