<?xml version="1.0" encoding="UTF-8"?>
<svg xmlns="http://www.w3.org/2000/svg" viewBox="0 0 32 32" width="32" height="32" shape-rendering="crispEdges">
  <!-- Green #4CAF50 -->
  <g fill="#4CAF50">
    <rect x="8" y="2" width="16" height="2"/>
    <rect x="6" y="4" width="20" height="2"/>
    <rect x="4" y="6" width="24" height="2"/>
    <rect x="4" y="8" width="24" height="2"/>
    <rect x="4" y="10" width="24" height="2"/>
    <rect x="4" y="12" width="10" height="2"/>
    <rect x="18" y="12" width="10" height="2"/>
    <rect x="4" y="14" width="10" height="2"/>
    <rect x="18" y="14" width="10" height="2"/>
    <rect x="4" y="16" width="10" height="2"/>
    <rect x="18" y="16" width="10" height="2"/>
    <rect x="4" y="18" width="24" height="2"/>
    <rect x="4" y="20" width="24" height="2"/>
    <rect x="6" y="22" width="20" height="2"/>
    <rect x="8" y="24" width="16" height="2"/>
    <rect x="12" y="26" width="8" height="2"/>
  </g>
  <!-- Dark Green #1B5E20 (crack) -->
  <g fill="#1B5E20">
    <rect x="14" y="12" width="4" height="2"/>
    <rect x="14" y="14" width="4" height="2"/>
    <rect x="14" y="16" width="4" height="2"/>
    <rect x="12" y="8" width="8" height="2"/>
    <rect x="12" y="10" width="8" height="2"/>
    <rect x="12" y="18" width="8" height="2"/>
    <rect x="12" y="20" width="8" height="2"/>
    <rect x="14" y="22" width="4" height="2"/>
  </g>
  <!-- Shield outline #2E7D32 -->
  <g fill="#2E7D32">
    <rect x="8" y="2" width="2" height="2"/>
    <rect x="22" y="2" width="2" height="2"/>
    <rect x="6" y="4" width="2" height="2"/>
    <rect x="24" y="4" width="2" height="2"/>
    <rect x="4" y="6" width="2" height="14"/>
    <rect x="26" y="6" width="2" height="14"/>
    <rect x="6" y="22" width="2" height="2"/>
    <rect x="24" y="22" width="2" height="2"/>
    <rect x="8" y="24" width="2" height="2"/>
    <rect x="22" y="24" width="2" height="2"/>
    <rect x="12" y="26" width="2" height="2"/>
    <rect x="18" y="26" width="2" height="2"/>
  </g>
  <!-- Crack detail #81C784 -->
  <g fill="#81C784">
    <rect x="14" y="13" width="2" height="2"/>
    <rect x="16" y="15" width="2" height="2"/>
    <rect x="14" y="17" width="2" height="2"/>
    <rect x="13" y="9" width="2" height="2"/>
    <rect x="17" y="19" width="2" height="2"/>
  </g>
</svg>