<?xml version="1.0" encoding="UTF-8"?>
<svg xmlns="http://www.w3.org/2000/svg" viewBox="0 0 32 32" shape-rendering="crispEdges">
  <!-- 北刃 外缘 -->
  <rect x="15" y="3" width="2" height="2" fill="#D0D0D0"/>
  <rect x="14" y="5" width="4" height="2" fill="#C0C0C0"/>
  <rect x="13" y="7" width="6" height="2" fill="#C0C0C0"/>
  <rect x="12" y="9" width="8" height="2" fill="#C0C0C0"/>
  <!-- 北刃 内缘 dark -->
  <rect x="13" y="11" width="6" height="2" fill="#A0A0A0"/>
  <rect x="14" y="13" width="4" height="1" fill="#A0A0A0"/>
  <!-- 南刃 外缘 -->
  <rect x="15" y="27" width="2" height="2" fill="#D0D0D0"/>
  <rect x="14" y="25" width="4" height="2" fill="#C0C0C0"/>
  <rect x="13" y="23" width="6" height="2" fill="#C0C0C0"/>
  <rect x="12" y="21" width="8" height="2" fill="#C0C0C0"/>
  <!-- 南刃 内缘 -->
  <rect x="13" y="19" width="6" height="2" fill="#A0A0A0"/>
  <rect x="14" y="18" width="4" height="1" fill="#A0A0A0"/>
  <!-- 东刃 外缘 -->
  <rect x="27" y="15" width="2" height="2" fill="#D0D0D0"/>
  <rect x="25" y="14" width="2" height="4" fill="#C0C0C0"/>
  <rect x="23" y="13" width="2" height="6" fill="#C0C0C0"/>
  <rect x="21" y="12" width="2" height="8" fill="#C0C0C0"/>
  <!-- 东刃 内缘 -->
  <rect x="19" y="13" width="2" height="6" fill="#A0A0A0"/>
  <rect x="18" y="14" width="1" height="4" fill="#A0A0A0"/>
  <!-- 西刃 外缘 -->
  <rect x="3" y="15" width="2" height="2" fill="#D0D0D0"/>
  <rect x="5" y="14" width="2" height="4" fill="#C0C0C0"/>
  <rect x="7" y="13" width="2" height="6" fill="#C0C0C0"/>
  <rect x="9" y="12" width="2" height="8" fill="#C0C0C0"/>
  <!-- 西刃 内缘 -->
  <rect x="11" y="13" width="2" height="6" fill="#A0A0A0"/>
  <rect x="13" y="14" width="1" height="4" fill="#A0A0A0"/>
  <!-- 中心枢纽 -->
  <rect x="14" y="14" width="4" height="4" fill="#808080"/>
  <rect x="15" y="15" width="2" height="2" fill="#606060"/>
  <!-- 刀尖高光 -->
  <rect x="15" y="2" width="1" height="1" fill="#E8E8E8"/>
  <rect x="16" y="2" width="1" height="1" fill="#E8E8E8"/>
  <rect x="15" y="29" width="1" height="1" fill="#E8E8E8"/>
  <rect x="16" y="29" width="1" height="1" fill="#E8E8E8"/>
  <rect x="29" y="15" width="1" height="1" fill="#E8E8E8"/>
  <rect x="29" y="16" width="1" height="1" fill="#E8E8E8"/>
  <rect x="2" y="15" width="1" height="1" fill="#E8E8E8"/>
  <rect x="2" y="16" width="1" height="1" fill="#E8E8E8"/>
  <!-- 旋转轨迹线 -->
  <rect x="12" y="4" width="1" height="1" fill="#E8E8E8"/>
  <rect x="19" y="4" width="1" height="1" fill="#E8E8E8"/>
  <rect x="12" y="27" width="1" height="1" fill="#E8E8E8"/>
  <rect x="19" y="27" width="1" height="1" fill="#E8E8E8"/>
  <rect x="4" y="13" width="1" height="1" fill="#E8E8E8"/>
  <rect x="4" y="18" width="1" height="1" fill="#E8E8E8"/>
  <rect x="27" y="13" width="1" height="1" fill="#E8E8E8"/>
  <rect x="27" y="18" width="1" height="1" fill="#E8E8E8"/>
</svg>