<?xml version="1.0" encoding="UTF-8"?>
<svg xmlns="http://www.w3.org/2000/svg" viewBox="0 0 32 32" shape-rendering="crispEdges">
  <!-- 光芒 四方向 -->
  <rect x="15" y="2" width="2" height="6" fill="#FFEC8B"/>
  <rect x="15" y="25" width="2" height="6" fill="#FFEC8B"/>
  <rect x="2" y="15" width="6" height="2" fill="#FFEC8B"/>
  <rect x="25" y="15" width="6" height="2" fill="#FFEC8B"/>
  <!-- 光芒 对角线 -->
  <rect x="25" y="5" width="2" height="2" fill="#FFF8DC"/>
  <rect x="27" y="7" width="2" height="2" fill="#FFF8DC"/>
  <rect x="5" y="5" width="2" height="2" fill="#FFF8DC"/>
  <rect x="3" y="7" width="2" height="2" fill="#FFF8DC"/>
  <rect x="25" y="25" width="2" height="2" fill="#FFF8DC"/>
  <rect x="27" y="27" width="2" height="2" fill="#FFF8DC"/>
  <rect x="5" y="25" width="2" height="2" fill="#FFF8DC"/>
  <rect x="3" y="27" width="2" height="2" fill="#FFF8DC"/>
  <!-- 光点散布 -->
  <rect x="8" y="8" width="2" height="2" fill="#FFFFFF"/>
  <rect x="22" y="8" width="2" height="2" fill="#FFFFFF"/>
  <rect x="8" y="22" width="2" height="2" fill="#FFFFFF"/>
  <rect x="22" y="22" width="2" height="2" fill="#FFFFFF"/>
  <!-- 盾牌外框 dark gold -->
  <rect x="12" y="8" width="8" height="2" fill="#B8860B"/>
  <rect x="11" y="9" width="10" height="1" fill="#B8860B"/>
  <rect x="10" y="10" width="12" height="2" fill="#B8860B"/>
  <rect x="9" y="12" width="14" height="2" fill="#B8860B"/>
  <rect x="10" y="14" width="12" height="2" fill="#B8860B"/>
  <rect x="11" y="16" width="10" height="2" fill="#B8860B"/>
  <rect x="12" y="18" width="8" height="2" fill="#B8860B"/>
  <rect x="13" y="20" width="6" height="2" fill="#B8860B"/>
  <rect x="14" y="22" width="4" height="2" fill="#B8860B"/>
  <rect x="15" y="24" width="2" height="1" fill="#B8860B"/>
  <!-- 盾牌主体 gold -->
  <rect x="13" y="8" width="6" height="2" fill="#FFD700"/>
  <rect x="12" y="9" width="8" height="1" fill="#FFD700"/>
  <rect x="11" y="10" width="10" height="2" fill="#FFD700"/>
  <rect x="10" y="12" width="12" height="2" fill="#FFD700"/>
  <rect x="11" y="14" width="10" height="2" fill="#FFD700"/>
  <rect x="12" y="16" width="8" height="2" fill="#FFD700"/>
  <rect x="13" y="18" width="6" height="2" fill="#FFD700"/>
  <rect x="14" y="20" width="4" height="2" fill="#FFD700"/>
  <rect x="15" y="22" width="2" height="2" fill="#FFD700"/>
  <!-- 盾牌左侧高光 -->
  <rect x="13" y="8" width="1" height="2" fill="#FFEC8B"/>
  <rect x="12" y="9" width="1" height="1" fill="#FFEC8B"/>
  <rect x="11" y="10" width="1" height="2" fill="#FFEC8B"/>
  <rect x="10" y="12" width="1" height="2" fill="#FFEC8B"/>
  <rect x="11" y="14" width="1" height="2" fill="#FFEC8B"/>
  <rect x="12" y="16" width="1" height="2" fill="#FFEC8B"/>
  <rect x="13" y="18" width="1" height="2" fill="#FFEC8B"/>
  <rect x="14" y="20" width="1" height="2" fill="#FFEC8B"/>
  <rect x="15" y="22" width="1" height="2" fill="#FFEC8B"/>
  <!-- 盾牌十字 白色 -->
  <rect x="15" y="10" width="2" height="12" fill="#FFFFFF"/>
  <rect x="12" y="14" width="8" height="2" fill="#FFFFFF"/>
  <!-- 十字阴影 -->
  <rect x="17" y="12" width="1" height="4" fill="#DAA520"/>
  <rect x="14" y="16" width="6" height="1" fill="#DAA520"/>
  <!-- 盾牌顶部装饰 -->
  <rect x="14" y="7" width="4" height="1" fill="#FFEC8B"/>
  <rect x="15" y="6" width="2" height="1" fill="#FFD700"/>
</svg>