<?xml version="1.0" encoding="UTF-8"?>
<svg xmlns="http://www.w3.org/2000/svg" viewBox="0 0 32 32" width="32" height="32" shape-rendering="crispEdges">
  <!-- Yellow #FFD700 -->
  <g fill="#FFD700">
    <rect x="14" y="4" width="4" height="2"/>
    <rect x="12" y="6" width="8" height="2"/>
    <rect x="10" y="8" width="12" height="2"/>
    <rect x="12" y="10" width="8" height="2"/>
    <rect x="12" y="12" width="2" height="2"/>
    <rect x="18" y="12" width="2" height="2"/>
    <rect x="12" y="14" width="2" height="2"/>
    <rect x="18" y="14" width="2" height="2"/>
    <rect x="12" y="16" width="2" height="2"/>
    <rect x="18" y="16" width="2" height="2"/>
    <rect x="12" y="18" width="2" height="2"/>
    <rect x="18" y="18" width="2" height="2"/>
    <rect x="10" y="20" width="12" height="2"/>
    <rect x="12" y="22" width="8" height="2"/>
    <rect x="14" y="24" width="4" height="2"/>
  </g>
  <!-- Orange #FF8C00 -->
  <g fill="#FF8C00">
    <rect x="12" y="4" width="2" height="2"/>
    <rect x="18" y="4" width="2" height="2"/>
    <rect x="10" y="6" width="2" height="2"/>
    <rect x="20" y="6" width="2" height="2"/>
    <rect x="8" y="8" width="2" height="2"/>
    <rect x="22" y="8" width="2" height="2"/>
    <rect x="10" y="10" width="2" height="2"/>
    <rect x="20" y="10" width="2" height="2"/>
    <rect x="14" y="12" width="4" height="2"/>
    <rect x="14" y="14" width="4" height="2"/>
    <rect x="14" y="16" width="4" height="2"/>
    <rect x="14" y="18" width="4" height="2"/>
    <rect x="8" y="20" width="2" height="2"/>
    <rect x="22" y="20" width="2" height="2"/>
    <rect x="10" y="22" width="2" height="2"/>
    <rect x="20" y="22" width="2" height="2"/>
    <rect x="12" y="24" width="2" height="2"/>
    <rect x="18" y="24" width="2" height="2"/>
    <rect x="14" y="26" width="4" height="2"/>
  </g>
  <!-- Speed lines (light orange #FFB347) -->
  <g fill="#FFB347">
    <rect x="4" y="6" width="4" height="2"/>
    <rect x="0" y="8" width="4" height="2"/>
    <rect x="2" y="10" width="4" height="2"/>
    <rect x="24" y="6" width="4" height="2"/>
    <rect x="28" y="8" width="4" height="2"/>
    <rect x="26" y="10" width="4" height="2"/>
  </g>
</svg>