<?xml version="1.0" encoding="UTF-8"?>
<svg xmlns="http://www.w3.org/2000/svg" viewBox="0 0 32 32" shape-rendering="crispEdges">
  <!-- 深蓝背景光晕 -->
  <rect x="10" y="2" width="4" height="2" fill="#000080"/>
  <rect x="9" y="4" width="4" height="2" fill="#000080"/>
  <rect x="8" y="6" width="4" height="2" fill="#000080"/>
  <rect x="7" y="8" width="4" height="2" fill="#000080"/>
  <rect x="8" y="10" width="4" height="2" fill="#000080"/>
  <rect x="9" y="12" width="4" height="2" fill="#000080"/>
  <rect x="10" y="14" width="4" height="2" fill="#000080"/>
  <rect x="9" y="16" width="4" height="2" fill="#000080"/>
  <rect x="8" y="18" width="4" height="2" fill="#000080"/>
  <rect x="7" y="20" width="4" height="2" fill="#000080"/>
  <rect x="8" y="22" width="4" height="2" fill="#000080"/>
  <rect x="9" y="24" width="4" height="2" fill="#000080"/>
  <rect x="10" y="26" width="4" height="2" fill="#000080"/>
  <rect x="11" y="28" width="4" height="2" fill="#000080"/>
  <!-- 闪电外侧光晕 cyan -->
  <rect x="11" y="2" width="2" height="2" fill="#00BFFF"/>
  <rect x="10" y="4" width="2" height="2" fill="#00BFFF"/>
  <rect x="9" y="6" width="2" height="2" fill="#00BFFF"/>
  <rect x="8" y="8" width="2" height="2" fill="#00BFFF"/>
  <rect x="9" y="10" width="2" height="2" fill="#00BFFF"/>
  <rect x="10" y="12" width="2" height="2" fill="#00BFFF"/>
  <rect x="11" y="14" width="2" height="2" fill="#00BFFF"/>
  <rect x="10" y="16" width="2" height="2" fill="#00BFFF"/>
  <rect x="9" y="18" width="2" height="2" fill="#00BFFF"/>
  <rect x="8" y="20" width="2" height="2" fill="#00BFFF"/>
  <rect x="9" y="22" width="2" height="2" fill="#00BFFF"/>
  <rect x="10" y="24" width="2" height="2" fill="#00BFFF"/>
  <rect x="11" y="26" width="2" height="2" fill="#00BFFF"/>
  <rect x="12" y="28" width="2" height="2" fill="#00BFFF"/>
  <!-- 闪电主体 亮青 -->
  <rect x="12" y="2" width="2" height="2" fill="#00FFFF"/>
  <rect x="11" y="4" width="2" height="2" fill="#00FFFF"/>
  <rect x="10" y="6" width="2" height="2" fill="#00FFFF"/>
  <rect x="9" y="8" width="2" height="2" fill="#00FFFF"/>
  <rect x="10" y="10" width="2" height="2" fill="#00FFFF"/>
  <rect x="11" y="12" width="2" height="2" fill="#00FFFF"/>
  <rect x="12" y="14" width="2" height="2" fill="#00FFFF"/>
  <rect x="11" y="16" width="2" height="2" fill="#00FFFF"/>
  <rect x="10" y="18" width="2" height="2" fill="#00FFFF"/>
  <rect x="9" y="20" width="2" height="2" fill="#00FFFF"/>
  <rect x="10" y="22" width="2" height="2" fill="#00FFFF"/>
  <rect x="11" y="24" width="2" height="2" fill="#00FFFF"/>
  <rect x="12" y="26" width="2" height="2" fill="#00FFFF"/>
  <rect x="13" y="28" width="2" height="2" fill="#00FFFF"/>
  <!-- 白色核心 -->
  <rect x="12" y="2" width="1" height="2" fill="#FFFFFF"/>
  <rect x="11" y="4" width="1" height="2" fill="#FFFFFF"/>
  <rect x="10" y="6" width="1" height="2" fill="#FFFFFF"/>
  <rect x="9" y="8" width="1" height="2" fill="#FFFFFF"/>
  <rect x="10" y="10" width="1" height="2" fill="#FFFFFF"/>
  <rect x="11" y="12" width="1" height="2" fill="#FFFFFF"/>
  <rect x="12" y="14" width="1" height="2" fill="#FFFFFF"/>
  <rect x="11" y="16" width="1" height="2" fill="#FFFFFF"/>
  <rect x="10" y="18" width="1" height="2" fill="#FFFFFF"/>
  <rect x="9" y="20" width="1" height="2" fill="#FFFFFF"/>
  <rect x="10" y="22" width="1" height="2" fill="#FFFFFF"/>
  <rect x="11" y="24" width="1" height="2" fill="#FFFFFF"/>
  <rect x="12" y="26" width="1" height="2" fill="#FFFFFF"/>
  <rect x="13" y="28" width="1" height="2" fill="#FFFFFF"/>
  <!-- 黄色高亮转折点 -->
  <rect x="9" y="8" width="2" height="2" fill="#FFFF00"/>
  <rect x="12" y="14" width="2" height="2" fill="#FFFF00"/>
  <rect x="9" y="20" width="2" height="2" fill="#FFFF00"/>
  <rect x="13" y="28" width="2" height="2" fill="#FFFF00"/>
  <!-- 分支闪电 左上 -->
  <rect x="7" y="6" width="2" height="2" fill="#00FFFF"/>
  <rect x="6" y="7" width="2" height="2" fill="#00FFFF"/>
  <rect x="5" y="8" width="2" height="2" fill="#00FFFF"/>
  <!-- 分支闪电 右下 -->
  <rect x="14" y="16" width="2" height="2" fill="#00FFFF"/>
  <rect x="15" y="17" width="2" height="2" fill="#00FFFF"/>
  <rect x="16" y="18" width="2" height="2" fill="#00FFFF"/>
  <!-- 分支闪电 左下 -->
  <rect x="7" y="22" width="2" height="2" fill="#00FFFF"/>
  <rect x="6" y="23" width="2" height="2" fill="#00FFFF"/>
  <rect x="5" y="24" width="2" height="2" fill="#00FFFF"/>
  <!-- 末端火花 -->
  <rect x="5" y="8" width="1" height="1" fill="#FFFF00"/>
  <rect x="16" y="18" width="1" height="1" fill="#FFFF00"/>
  <rect x="5" y="24" width="1" height="1" fill="#FFFF00"/>
  <!-- 光点散布 -->
  <rect x="7" y="10" width="1" height="1" fill="#FFFFFF"/>
  <rect x="14" y="12" width="1" height="1" fill="#FFFFFF"/>
  <rect x="7" y="18" width="1" height="1" fill="#FFFFFF"/>
  <rect x="14" y="26" width="1" height="1" fill="#FFFFFF"/>
</svg>