<?xml version="1.0" encoding="UTF-8"?>
<svg xmlns="http://www.w3.org/2000/svg" viewBox="0 0 32 32" width="32" height="32" shape-rendering="crispEdges">
  <!-- Blue #2196F3 -->
  <g fill="#2196F3">
    <rect x="12" y="6" width="8" height="2"/>
    <rect x="10" y="8" width="4" height="2"/>
    <rect x="18" y="8" width="4" height="2"/>
    <rect x="10" y="10" width="12" height="2"/>
    <rect x="8" y="12" width="4" height="2"/>
    <rect x="8" y="14" width="4" height="2"/>
    <rect x="8" y="16" width="4" height="2"/>
    <rect x="8" y="18" width="4" height="2"/>
    <rect x="20" y="12" width="4" height="2"/>
    <rect x="20" y="14" width="4" height="2"/>
    <rect x="20" y="16" width="4" height="2"/>
    <rect x="20" y="18" width="4" height="2"/>
    <rect x="10" y="20" width="12" height="2"/>
    <rect x="12" y="22" width="8" height="2"/>
    <rect x="14" y="24" width="4" height="2"/>
  </g>
  <!-- Dark Blue #0D47A1 -->
  <g fill="#0D47A1">
    <rect x="10" y="6" width="2" height="2"/>
    <rect x="20" y="6" width="2" height="2"/>
    <rect x="8" y="8" width="2" height="2"/>
    <rect x="22" y="8" width="2" height="2"/>
    <rect x="6" y="10" width="4" height="2"/>
    <rect x="22" y="10" width="4" height="2"/>
    <rect x="6" y="12" width="2" height="8"/>
    <rect x="24" y="12" width="2" height="8"/>
    <rect x="8" y="20" width="2" height="2"/>
    <rect x="22" y="20" width="2" height="2"/>
    <rect x="10" y="22" width="2" height="2"/>
    <rect x="20" y="22" width="2" height="2"/>
    <rect x="12" y="24" width="2" height="2"/>
    <rect x="18" y="24" width="2" height="2"/>
    <rect x="14" y="26" width="4" height="2"/>
  </g>
</svg>