<?xml version="1.0" encoding="UTF-8"?>
<svg xmlns="http://www.w3.org/2000/svg" viewBox="0 0 32 32" shape-rendering="crispEdges">
  <!-- Frost top decoration -->
  <rect x="12" y="0" width="3" height="3" fill="#87CEEB"/>
  <rect x="17" y="0" width="3" height="3" fill="#87CEEB"/>
  <rect x="13" y="0" width="2" height="1" fill="#E0FFFF"/>
  <rect x="18" y="0" width="2" height="1" fill="#E0FFFF"/>
  <!-- Hourglass frame top -->
  <rect x="7" y="3" width="18" height="3" fill="#000080"/>
  <rect x="7" y="3" width="18" height="1" fill="#1E2A6E"/>
  <!-- Hourglass frame left -->
  <rect x="7" y="6" width="3" height="9" fill="#000080"/>
  <rect x="10" y="6" width="1" height="9" fill="#1E2A6E"/>
  <!-- Hourglass frame right -->
  <rect x="22" y="6" width="3" height="9" fill="#000080"/>
  <!-- Top glass -->
  <rect x="10" y="6" width="12" height="9" fill="#1E90FF"/>
  <rect x="10" y="6" width="12" height="4" fill="#4169E1"/>
  <!-- Top sand -->
  <rect x="12" y="7" width="8" height="3" fill="#00CED1"/>
  <rect x="12" y="7" width="8" height="1" fill="#00FFFF"/>
  <!-- Middle connector -->
  <rect x="7" y="15" width="6" height="3" fill="#000080"/>
  <rect x="19" y="15" width="6" height="3" fill="#000080"/>
  <rect x="13" y="15" width="6" height="3" fill="#1E90FF"/>
  <!-- Sand stream -->
  <rect x="14" y="15" width="4" height="3" fill="#00CED1"/>
  <!-- Bottom glass -->
  <rect x="10" y="18" width="12" height="9" fill="#1E90FF"/>
  <rect x="10" y="18" width="12" height="4" fill="#4169E1"/>
  <!-- Bottom sand -->
  <rect x="12" y="20" width="8" height="7" fill="#00CED1"/>
  <rect x="12" y="20" width="8" height="2" fill="#00FFFF"/>
  <rect x="13" y="25" width="6" height="2" fill="#008B8B"/>
  <!-- Hourglass frame bottom -->
  <rect x="7" y="18" width="3" height="9" fill="#000080"/>
  <rect x="10" y="18" width="1" height="9" fill="#1E2A6E"/>
  <rect x="22" y="18" width="3" height="9" fill="#000080"/>
  <!-- Hourglass frame bottom bar -->
  <rect x="7" y="27" width="18" height="3" fill="#000080"/>
  <rect x="7" y="27" width="18" height="1" fill="#1E2A6E"/>
  <!-- Ice crystals left -->
  <rect x="1" y="8" width="4" height="4" fill="#87CEEB"/>
  <rect x="3" y="6" width="3" height="2" fill="#87CEEB"/>
  <rect x="2" y="9" width="2" height="2" fill="#E0FFFF"/>
  <rect x="1" y="20" width="4" height="4" fill="#87CEEB"/>
  <rect x="3" y="22" width="3" height="2" fill="#87CEEB"/>
  <rect x="2" y="21" width="2" height="2" fill="#E0FFFF"/>
  <!-- Ice crystals right -->
  <rect x="27" y="8" width="4" height="4" fill="#87CEEB"/>
  <rect x="26" y="6" width="3" height="2" fill="#87CEEB"/>
  <rect x="28" y="9" width="2" height="2" fill="#E0FFFF"/>
  <rect x="27" y="20" width="4" height="4" fill="#87CEEB"/>
  <rect x="26" y="22" width="3" height="2" fill="#87CEEB"/>
  <rect x="28" y="21" width="2" height="2" fill="#E0FFFF"/>
  <!-- Frost bottom -->
  <rect x="12" y="30" width="3" height="2" fill="#87CEEB"/>
  <rect x="17" y="30" width="3" height="2" fill="#87CEEB"/>
  <rect x="13" y="30" width="2" height="1" fill="#E0FFFF"/>
  <rect x="18" y="30" width="2" height="1" fill="#E0FFFF"/>
</svg>