<?xml version="1.0" encoding="UTF-8"?>
<svg xmlns="http://www.w3.org/2000/svg" viewBox="0 0 64 64" shape-rendering="crispEdges">
  <!-- Base rock -->
  <rect x="0" y="0" width="64" height="64" fill="#555555"/>
  <!-- Larger rock face highlights -->
  <rect x="4" y="4" width="10" height="8" fill="#777777"/>
  <rect x="20" y="2" width="8" height="12" fill="#666666"/>
  <rect x="36" y="6" width="12" height="6" fill="#777777"/>
  <rect x="54" y="2" width="6" height="10" fill="#666666"/>
  <rect x="4" y="34" width="6" height="12" fill="#666666"/>
  <rect x="16" y="36" width="14" height="8" fill="#777777"/>
  <rect x="36" y="34" width="8" height="14" fill="#666666"/>
  <rect x="50" y="36" width="10" height="8" fill="#777777"/>
  <rect x="4" y="52" width="12" height="8" fill="#777777"/>
  <rect x="22" y="52" width="8" height="6" fill="#666666"/>
  <rect x="36" y="52" width="14" height="8" fill="#777777"/>
  <rect x="56" y="52" width="4" height="8" fill="#666666"/>
  <!-- Rock shadows -->
  <rect x="2" y="2" width="2" height="2" fill="#333333"/>
  <rect x="18" y="4" width="2" height="2" fill="#333333"/>
  <rect x="34" y="2" width="2" height="4" fill="#333333"/>
  <rect x="52" y="4" width="2" height="2" fill="#333333"/>
  <rect x="2" y="34" width="2" height="2" fill="#333333"/>
  <rect x="14" y="34" width="2" height="2" fill="#333333"/>
  <rect x="34" y="36" width="2" height="2" fill="#333333"/>
  <rect x="48" y="34" width="2" height="2" fill="#333333"/>
  <rect x="2" y="52" width="2" height="2" fill="#333333"/>
  <rect x="20" y="54" width="2" height="2" fill="#333333"/>
  <rect x="34" y="54" width="2" height="2" fill="#333333"/>
  <rect x="54" y="54" width="2" height="2" fill="#333333"/>
  <!-- Cracks (light gray) -->
  <rect x="14" y="14" width="2" height="8" fill="#999999"/>
  <rect x="14" y="22" width="6" height="2" fill="#999999"/>
  <rect x="16" y="18" width="2" height="2" fill="#999999"/>
  <rect x="40" y="10" width="6" height="2" fill="#999999"/>
  <rect x="44" y="12" width="2" height="6" fill="#999999"/>
  <rect x="44" y="18" width="4" height="2" fill="#999999"/>
  <rect x="8" y="42" width="8" height="2" fill="#999999"/>
  <rect x="14" y="44" width="2" height="6" fill="#999999"/>
  <rect x="14" y="50" width="6" height="2" fill="#999999"/>
  <rect x="36" y="46" width="2" height="8" fill="#999999"/>
  <rect x="36" y="54" width="8" height="2" fill="#999999"/>
  <rect x="42" y="48" width="2" height="2" fill="#999999"/>
  <rect x="52" y="14" width="2" height="10" fill="#999999"/>
  <rect x="50" y="20" width="2" height="2" fill="#999999"/>
  <rect x="54" y="24" width="4" height="2" fill="#999999"/>
  <rect x="2" y="24" width="4" height="2" fill="#999999"/>
  <rect x="4" y="26" width="2" height="4" fill="#999999"/>
  <rect x="28" y="22" width="2" height="6" fill="#999999"/>
  <rect x="26" y="26" width="2" height="2" fill="#999999"/>
  <rect x="30" y="28" width="2" height="2" fill="#999999"/>
  <rect x="58" y="44" width="2" height="6" fill="#999999"/>
  <rect x="56" y="48" width="2" height="2" fill="#999999"/>
  <!-- Rock detail highlights -->
  <rect x="6" y="6" width="2" height="2" fill="#888888"/>
  <rect x="24" y="4" width="2" height="2" fill="#888888"/>
  <rect x="40" y="8" width="2" height="2" fill="#888888"/>
  <rect x="6" y="36" width="2" height="2" fill="#888888"/>
  <rect x="20" y="38" width="2" height="2" fill="#888888"/>
  <rect x="40" y="36" width="2" height="2" fill="#888888"/>
  <rect x="6" y="54" width="2" height="2" fill="#888888"/>
  <rect x="24" y="54" width="2" height="2" fill="#888888"/>
  <rect x="40" y="54" width="2" height="2" fill="#888888"/>
  <rect x="56" y="6" width="2" height="2" fill="#888888"/>
  <rect x="56" y="38" width="2" height="2" fill="#888888"/>
</svg>