<?xml version="1.0" encoding="UTF-8"?>
<svg xmlns="http://www.w3.org/2000/svg" viewBox="0 0 64 64" shape-rendering="crispEdges">
  <!-- Base grass -->
  <rect x="0" y="0" width="64" height="64" fill="#4CAF50"/>
  <!-- Grid lines (subtle, seamless) -->
  <rect x="0" y="0" width="64" height="2" fill="#388E3C"/>
  <rect x="0" y="62" width="64" height="2" fill="#388E3C"/>
  <rect x="0" y="0" width="2" height="64" fill="#388E3C"/>
  <rect x="62" y="0" width="2" height="64" fill="#388E3C"/>
  <rect x="0" y="31" width="64" height="2" fill="#388E3C"/>
  <rect x="31" y="0" width="2" height="64" fill="#388E3C"/>
  <!-- Light grass patches -->
  <rect x="4" y="4" width="4" height="4" fill="#66BB6A"/>
  <rect x="12" y="8" width="4" height="2" fill="#81C784"/>
  <rect x="20" y="4" width="2" height="6" fill="#66BB6A"/>
  <rect x="28" y="6" width="4" height="4" fill="#81C784"/>
  <rect x="36" y="4" width="4" height="2" fill="#66BB6A"/>
  <rect x="44" y="8" width="2" height="4" fill="#81C784"/>
  <rect x="52" y="4" width="4" height="4" fill="#66BB6A"/>
  <rect x="58" y="6" width="2" height="2" fill="#81C784"/>
  <rect x="4" y="34" width="6" height="2" fill="#66BB6A"/>
  <rect x="14" y="36" width="2" height="4" fill="#81C784"/>
  <rect x="22" y="34" width="4" height="4" fill="#66BB6A"/>
  <rect x="30" y="36" width="4" height="2" fill="#81C784"/>
  <rect x="40" y="34" width="2" height="6" fill="#66BB6A"/>
  <rect x="48" y="36" width="4" height="4" fill="#81C784"/>
  <rect x="56" y="34" width="4" height="2" fill="#66BB6A"/>
  <!-- Dark grass patches -->
  <rect x="8" y="14" width="2" height="4" fill="#2E7D32"/>
  <rect x="18" y="12" width="4" height="2" fill="#388E3C"/>
  <rect x="26" y="14" width="2" height="2" fill="#2E7D32"/>
  <rect x="36" y="12" width="4" height="4" fill="#2E7D32"/>
  <rect x="46" y="14" width="2" height="2" fill="#388E3C"/>
  <rect x="54" y="12" width="4" height="2" fill="#2E7D32"/>
  <rect x="6" y="44" width="4" height="2" fill="#2E7D32"/>
  <rect x="16" y="42" width="2" height="4" fill="#388E3C"/>
  <rect x="24" y="44" width="4" height="4" fill="#2E7D32"/>
  <rect x="34" y="42" width="2" height="2" fill="#388E3C"/>
  <rect x="44" y="44" width="4" height="2" fill="#2E7D32"/>
  <rect x="54" y="42" width="2" height="4" fill="#388E3C"/>
  <!-- Light grass row 2 -->
  <rect x="4" y="20" width="2" height="6" fill="#81C784"/>
  <rect x="12" y="22" width="4" height="4" fill="#66BB6A"/>
  <rect x="22" y="20" width="4" height="2" fill="#81C784"/>
  <rect x="32" y="22" width="2" height="4" fill="#66BB6A"/>
  <rect x="42" y="20" width="4" height="4" fill="#81C784"/>
  <rect x="52" y="22" width="2" height="2" fill="#66BB6A"/>
  <rect x="58" y="20" width="2" height="4" fill="#81C784"/>
  <!-- Dark grass row 2 -->
  <rect x="8" y="28" width="4" height="2" fill="#388E3C"/>
  <rect x="18" y="26" width="2" height="4" fill="#2E7D32"/>
  <rect x="28" y="28" width="4" height="2" fill="#388E3C"/>
  <rect x="38" y="26" width="2" height="4" fill="#2E7D32"/>
  <rect x="48" y="28" width="4" height="2" fill="#388E3C"/>
  <rect x="58" y="26" width="2" height="4" fill="#2E7D32"/>
  <!-- Light grass row 3 -->
  <rect x="4" y="50" width="4" height="4" fill="#66BB6A"/>
  <rect x="14" y="52" width="2" height="2" fill="#81C784"/>
  <rect x="22" y="50" width="6" height="2" fill="#66BB6A"/>
  <rect x="34" y="52" width="4" height="4" fill="#81C784"/>
  <rect x="44" y="50" width="2" height="4" fill="#66BB6A"/>
  <rect x="52" y="52" width="4" height="2" fill="#81C784"/>
  <!-- Dark grass row 3 -->
  <rect x="8" y="58" width="2" height="2" fill="#2E7D32"/>
  <rect x="16" y="56" width="4" height="4" fill="#388E3C"/>
  <rect x="26" y="58" width="2" height="2" fill="#2E7D32"/>
  <rect x="36" y="56" width="4" height="2" fill="#388E3C"/>
  <rect x="46" y="58" width="2" height="4" fill="#2E7D32"/>
  <rect x="54" y="56" width="4" height="2" fill="#388E3C"/>
</svg>