<?xml version="1.0" encoding="UTF-8"?>
<svg xmlns="http://www.w3.org/2000/svg" viewBox="0 0 64 64" shape-rendering="crispEdges">
  <!-- Base -->
  <rect x="16" y="48" width="32" height="4" fill="#1A0040"/>
  <rect x="12" y="52" width="8" height="4" fill="#1A0040"/>
  <rect x="20" y="52" width="24" height="4" fill="#2D0060"/>
  <rect x="44" y="52" width="8" height="4" fill="#1A0040"/>
  <rect x="8" y="56" width="8" height="4" fill="#1A0040"/>
  <rect x="16" y="56" width="32" height="4" fill="#2D0060"/>
  <rect x="48" y="56" width="8" height="4" fill="#1A0040"/>
  <rect x="4" y="60" width="8" height="4" fill="#1A0040"/>
  <rect x="12" y="60" width="40" height="4" fill="#2D0060"/>
  <rect x="52" y="60" width="8" height="4" fill="#1A0040"/>

  <!-- Mage Robe Bottom -->
  <rect x="20" y="44" width="24" height="4" fill="#4B0082"/>
  <rect x="16" y="48" width="4" height="4" fill="#3A0066"/>
  <rect x="44" y="48" width="4" height="4" fill="#3A0066"/>

  <!-- Mage Robe Body -->
  <rect x="22" y="24" width="20" height="20" fill="#6A0DAD"/>
  <rect x="26" y="24" width="12" height="20" fill="#8B00FF"/>
  <rect x="22" y="24" width="20" height="4" fill="#4B0082"/>
  <rect x="22" y="40" width="20" height="4" fill="#4B0082"/>

  <!-- Robe Belt -->
  <rect x="20" y="36" width="24" height="4" fill="#00CED1"/>
  <rect x="22" y="36" width="20" height="4" fill="#00FFFF"/>

  <!-- Mage Arms -->
  <rect x="16" y="28" width="4" height="12" fill="#6A0DAD"/>
  <rect x="16" y="28" width="4" height="4" fill="#8B00FF"/>
  <rect x="44" y="28" width="4" height="12" fill="#6A0DAD"/>
  <rect x="44" y="28" width="4" height="4" fill="#8B00FF"/>

  <!-- Mage Hands -->
  <rect x="16" y="36" width="4" height="4" fill="#BB44FF"/>
  <rect x="44" y="36" width="4" height="4" fill="#BB44FF"/>

  <!-- Mage Head -->
  <rect x="28" y="16" width="8" height="8" fill="#BB44FF"/>
  <rect x="28" y="16" width="8" height="4" fill="#DDA0DD"/>

  <!-- Electric Orb (floating above hat) -->
  <rect x="24" y="0" width="16" height="4" fill="#00FFFF"/>
  <rect x="20" y="4" width="4" height="4" fill="#00CED1"/>
  <rect x="40" y="4" width="4" height="4" fill="#00CED1"/>

  <!-- Mage Hat -->
  <rect x="24" y="4" width="16" height="8" fill="#4B0082"/>
  <rect x="24" y="4" width="16" height="4" fill="#6A0DAD"/>
  <rect x="28" y="8" width="8" height="4" fill="#4B0082"/>

  <!-- Hat Brim -->
  <rect x="20" y="12" width="24" height="4" fill="#4B0082"/>
  <rect x="22" y="12" width="20" height="4" fill="#6A0DAD"/>

  <!-- Lightning Bolts Left -->
  <rect x="8" y="12" width="4" height="4" fill="#00FFFF"/>
  <rect x="12" y="16" width="4" height="4" fill="#00CED1"/>
  <rect x="8" y="20" width="4" height="4" fill="#1E90FF"/>
  <rect x="12" y="24" width="4" height="4" fill="#00CED1"/>
  <rect x="8" y="28" width="4" height="4" fill="#00FFFF"/>

  <!-- Lightning Bolts Right -->
  <rect x="52" y="12" width="4" height="4" fill="#00FFFF"/>
  <rect x="48" y="16" width="4" height="4" fill="#00CED1"/>
  <rect x="52" y="20" width="4" height="4" fill="#1E90FF"/>
  <rect x="48" y="24" width="4" height="4" fill="#00CED1"/>
  <rect x="52" y="28" width="4" height="4" fill="#00FFFF"/>

  <!-- Electric Sparks -->
  <rect x="16" y="20" width="4" height="4" fill="#00FFFF"/>
  <rect x="44" y="20" width="4" height="4" fill="#00FFFF"/>
  <rect x="12" y="32" width="4" height="4" fill="#1E90FF"/>
  <rect x="48" y="32" width="4" height="4" fill="#1E90FF"/>
</svg>