<?xml version="1.0" encoding="UTF-8"?>
<svg xmlns="http://www.w3.org/2000/svg" viewBox="0 0 64 64" shape-rendering="crispEdges">
  <!-- Base -->
  <rect x="16" y="48" width="32" height="4" fill="#5C4033"/>
  <rect x="12" y="52" width="8" height="4" fill="#5C4033"/>
  <rect x="20" y="52" width="24" height="4" fill="#8B6914"/>
  <rect x="44" y="52" width="8" height="4" fill="#5C4033"/>
  <rect x="8" y="56" width="8" height="4" fill="#5C4033"/>
  <rect x="16" y="56" width="32" height="4" fill="#8B6914"/>
  <rect x="48" y="56" width="8" height="4" fill="#5C4033"/>
  <rect x="4" y="60" width="8" height="4" fill="#5C4033"/>
  <rect x="12" y="60" width="40" height="4" fill="#8B6914"/>
  <rect x="52" y="60" width="8" height="4" fill="#5C4033"/>

  <!-- Tower Body -->
  <rect x="20" y="44" width="24" height="4" fill="#5C4033"/>
  <rect x="20" y="28" width="24" height="16" fill="#DAA520"/>
  <rect x="24" y="28" width="16" height="16" fill="#FFD700"/>
  <rect x="16" y="36" width="4" height="8" fill="#8B6914"/>
  <rect x="44" y="36" width="4" height="8" fill="#8B6914"/>
  <rect x="20" y="44" width="4" height="4" fill="#8B6914"/>
  <rect x="40" y="44" width="4" height="4" fill="#8B6914"/>

  <!-- Clock Face -->
  <rect x="24" y="8" width="16" height="4" fill="#DAA520"/>
  <rect x="20" y="12" width="24" height="4" fill="#FFD700"/>
  <rect x="20" y="16" width="24" height="12" fill="#FFF8DC"/>
  <rect x="20" y="28" width="24" height="4" fill="#FFD700"/>

  <!-- Clock Frame Detail -->
  <rect x="16" y="12" width="4" height="16" fill="#8B6914"/>
  <rect x="44" y="12" width="4" height="16" fill="#8B6914"/>

  <!-- Clock Hands -->
  <rect x="30" y="12" width="4" height="4" fill="#5C4033"/>
  <rect x="30" y="16" width="4" height="4" fill="#CC7000"/>
  <rect x="34" y="16" width="4" height="4" fill="#CC7000"/>
  <rect x="30" y="20" width="8" height="4" fill="#CC7000"/>

  <!-- Speed Lines Left -->
  <rect x="4" y="12" width="8" height="4" fill="#FF8C00"/>
  <rect x="8" y="20" width="8" height="4" fill="#FFA500"/>
  <rect x="4" y="28" width="8" height="4" fill="#FF8C00"/>

  <!-- Speed Lines Right -->
  <rect x="52" y="12" width="8" height="4" fill="#FF8C00"/>
  <rect x="48" y="20" width="8" height="4" fill="#FFA500"/>
  <rect x="52" y="28" width="8" height="4" fill="#FF8C00"/>
</svg>