<?xml version="1.0" encoding="UTF-8"?>
<svg xmlns="http://www.w3.org/2000/svg" viewBox="0 0 64 64" shape-rendering="crispEdges">
  <!-- 冰晶尖端 -->
  <rect x="28" y="4" width="8" height="4" fill="#E0F7FA"/>
  <rect x="24" y="8" width="16" height="4" fill="#B2EBF2"/>
  <!-- 冰晶上部 -->
  <rect x="20" y="12" width="24" height="4" fill="#80DEEA"/>
  <rect x="16" y="16" width="32" height="4" fill="#4DD0E1"/>
  <rect x="20" y="20" width="24" height="4" fill="#80DEEA"/>
  <!-- 左侧冰晶碎片 -->
  <rect x="8" y="16" width="4" height="4" fill="#B2EBF2"/>
  <rect x="4" y="20" width="4" height="4" fill="#E0F7FA"/>
  <rect x="12" y="20" width="4" height="4" fill="#80DEEA"/>
  <!-- 右侧冰晶碎片 -->
  <rect x="52" y="16" width="4" height="4" fill="#B2EBF2"/>
  <rect x="56" y="20" width="4" height="4" fill="#E0F7FA"/>
  <rect x="48" y="20" width="4" height="4" fill="#80DEEA"/>
  <!-- 冰晶中部 -->
  <rect x="16" y="24" width="32" height="4" fill="#4DD0E1"/>
  <rect x="20" y="28" width="24" height="4" fill="#26C6DA"/>
  <!-- 冰霜核心 -->
  <rect x="24" y="32" width="16" height="4" fill="#E0F7FA"/>
  <rect x="20" y="36" width="24" height="4" fill="#80DEEA"/>
  <rect x="24" y="40" width="16" height="4" fill="#B2EBF2"/>
  <!-- 冰晶下部 -->
  <rect x="20" y="44" width="24" height="4" fill="#26C6DA"/>
  <!-- 底座上层 -->
  <rect x="16" y="48" width="32" height="4" fill="#0288D1"/>
  <rect x="16" y="48" width="4" height="4" fill="#01579B"/>
  <rect x="44" y="48" width="4" height="4" fill="#01579B"/>
  <!-- 底座中层 -->
  <rect x="12" y="52" width="40" height="4" fill="#01579B"/>
  <rect x="12" y="52" width="4" height="4" fill="#012C4E"/>
  <rect x="48" y="52" width="4" height="4" fill="#012C4E"/>
  <!-- 底座下层 -->
  <rect x="8" y="56" width="48" height="4" fill="#012C4E"/>
  <rect x="8" y="56" width="4" height="4" fill="#001C33"/>
  <rect x="52" y="56" width="4" height="4" fill="#001C33"/>
  <!-- 底座最底层 -->
  <rect x="4" y="60" width="56" height="4" fill="#001C33"/>
</svg>