<?xml version="1.0" encoding="UTF-8"?>
<svg xmlns="http://www.w3.org/2000/svg" viewBox="0 0 64 64" shape-rendering="crispEdges">
  <!-- Cloud Base -->
  <rect x="16" y="48" width="32" height="4" fill="#FFF8DC"/>
  <rect x="12" y="52" width="8" height="4" fill="#FFF8DC"/>
  <rect x="20" y="52" width="24" height="4" fill="#FFFFFF"/>
  <rect x="44" y="52" width="8" height="4" fill="#FFF8DC"/>
  <rect x="8" y="56" width="8" height="4" fill="#FFF8DC"/>
  <rect x="16" y="56" width="32" height="4" fill="#FFFFFF"/>
  <rect x="48" y="56" width="8" height="4" fill="#FFF8DC"/>
  <rect x="4" y="60" width="8" height="4" fill="#FFF8DC"/>
  <rect x="12" y="60" width="40" height="4" fill="#FFFFFF"/>
  <rect x="52" y="60" width="8" height="4" fill="#FFF8DC"/>

  <!-- Angel Robe Body -->
  <rect x="24" y="28" width="16" height="20" fill="#FFFFFF"/>
  <rect x="28" y="28" width="8" height="20" fill="#FFF8DC"/>
  <rect x="20" y="40" width="24" height="4" fill="#FFD700"/>
  <rect x="24" y="40" width="16" height="4" fill="#FFEC8B"/>

  <!-- Robe Bottom Flare -->
  <rect x="20" y="44" width="24" height="4" fill="#FFFFFF"/>
  <rect x="16" y="48" width="4" height="4" fill="#FFF8DC"/>
  <rect x="44" y="48" width="4" height="4" fill="#FFF8DC"/>

  <!-- Angel Head -->
  <rect x="28" y="16" width="8" height="8" fill="#FFF8DC"/>
  <rect x="28" y="16" width="8" height="4" fill="#FFFFFF"/>

  <!-- Halo -->
  <rect x="24" y="8" width="16" height="4" fill="#FFD700"/>
  <rect x="20" y="12" width="4" height="4" fill="#FFD700"/>
  <rect x="40" y="12" width="4" height="4" fill="#FFD700"/>
  <rect x="24" y="12" width="16" height="4" fill="#FFEC8B"/>

  <!-- Halo Glow -->
  <rect x="16" y="8" width="4" height="4" fill="#FFD700"/>
  <rect x="44" y="8" width="4" height="4" fill="#FFD700"/>

  <!-- Holy Sword - Blade -->
  <rect x="30" y="8" width="4" height="32" fill="#FFD700"/>
  <rect x="30" y="8" width="4" height="20" fill="#FFEC8B"/>
  <rect x="28" y="4" width="8" height="4" fill="#FFD700"/>

  <!-- Holy Sword - Guard -->
  <rect x="24" y="36" width="16" height="4" fill="#B8860B"/>
  <rect x="28" y="36" width="8" height="4" fill="#FFD700"/>

  <!-- Holy Sword - Handle -->
  <rect x="30" y="40" width="4" height="8" fill="#B8860B"/>
  <rect x="30" y="40" width="4" height="4" fill="#FFD700"/>

  <!-- Left Wing -->
  <rect x="8" y="16" width="12" height="4" fill="#FFEC8B"/>
  <rect x="4" y="20" width="8" height="4" fill="#FFD700"/>
  <rect x="8" y="20" width="8" height="4" fill="#FFEC8B"/>
  <rect x="4" y="24" width="4" height="4" fill="#FFD700"/>
  <rect x="8" y="24" width="8" height="8" fill="#FFEC8B"/>
  <rect x="4" y="28" width="4" height="4" fill="#FFD700"/>
  <rect x="12" y="32" width="4" height="4" fill="#FFF8DC"/>
  <rect x="8" y="36" width="4" height="4" fill="#FFEC8B"/>

  <!-- Right Wing -->
  <rect x="44" y="16" width="12" height="4" fill="#FFEC8B"/>
  <rect x="52" y="20" width="8" height="4" fill="#FFD700"/>
  <rect x="48" y="20" width="8" height="4" fill="#FFEC8B"/>
  <rect x="56" y="24" width="4" height="4" fill="#FFD700"/>
  <rect x="48" y="24" width="8" height="8" fill="#FFEC8B"/>
  <rect x="56" y="28" width="4" height="4" fill="#FFD700"/>
  <rect x="48" y="32" width="4" height="4" fill="#FFF8DC"/>
  <rect x="52" y="36" width="4" height="4" fill="#FFEC8B"/>
</svg>