<?xml version="1.0" encoding="UTF-8"?>
<svg xmlns="http://www.w3.org/2000/svg" viewBox="0 0 64 64" shape-rendering="crispEdges">
  <!-- Base -->
  <rect x="16" y="48" width="32" height="4" fill="#333333"/>
  <rect x="12" y="52" width="8" height="4" fill="#333333"/>
  <rect x="20" y="52" width="24" height="4" fill="#555555"/>
  <rect x="44" y="52" width="8" height="4" fill="#333333"/>
  <rect x="8" y="56" width="8" height="4" fill="#333333"/>
  <rect x="16" y="56" width="32" height="4" fill="#555555"/>
  <rect x="48" y="56" width="8" height="4" fill="#333333"/>
  <rect x="4" y="60" width="8" height="4" fill="#333333"/>
  <rect x="12" y="60" width="40" height="4" fill="#555555"/>
  <rect x="52" y="60" width="8" height="4" fill="#333333"/>

  <!-- Samurai Legs -->
  <rect x="26" y="44" width="4" height="4" fill="#333333"/>
  <rect x="34" y="44" width="4" height="4" fill="#333333"/>

  <!-- Samurai Robe Bottom -->
  <rect x="22" y="40" width="20" height="4" fill="#CC0000"/>
  <rect x="24" y="40" width="16" height="4" fill="#FF0000"/>

  <!-- Samurai Body Armor -->
  <rect x="24" y="28" width="16" height="12" fill="#C0C0C0"/>
  <rect x="28" y="28" width="8" height="12" fill="#D3D3D3"/>
  <rect x="24" y="28" width="16" height="4" fill="#909090"/>
  <rect x="24" y="36" width="16" height="4" fill="#909090"/>

  <!-- Armor Chest Detail -->
  <rect x="28" y="32" width="8" height="4" fill="#CC0000"/>

  <!-- Samurai Shoulders -->
  <rect x="20" y="24" width="24" height="4" fill="#C0C0C0"/>
  <rect x="20" y="24" width="8" height="4" fill="#909090"/>
  <rect x="36" y="24" width="8" height="4" fill="#909090"/>

  <!-- Samurai Face -->
  <rect x="28" y="20" width="8" height="4" fill="#D3D3D3"/>

  <!-- Samurai Helmet -->
  <rect x="24" y="12" width="16" height="8" fill="#555555"/>
  <rect x="24" y="12" width="16" height="4" fill="#909090"/>
  <rect x="28" y="12" width="8" height="4" fill="#C0C0C0"/>

  <!-- Helmet Crest -->
  <rect x="28" y="8" width="8" height="4" fill="#CC0000"/>
  <rect x="30" y="4" width="4" height="4" fill="#CC0000"/>

  <!-- Katana Blade -->
  <rect x="30" y="4" width="4" height="40" fill="#D3D3D3"/>
  <rect x="32" y="4" width="2" height="40" fill="#FFFFFF"/>
  <rect x="28" y="0" width="8" height="4" fill="#D3D3D3"/>

  <!-- Katana Guard -->
  <rect x="22" y="38" width="20" height="4" fill="#333333"/>
  <rect x="24" y="38" width="16" height="4" fill="#555555"/>

  <!-- Katana Handle -->
  <rect x="30" y="42" width="4" height="6" fill="#333333"/>
  <rect x="30" y="42" width="4" height="2" fill="#CC0000"/>
  <rect x="30" y="46" width="4" height="2" fill="#CC0000"/>

  <!-- Side Armor Plates Left -->
  <rect x="16" y="28" width="4" height="8" fill="#909090"/>
  <rect x="16" y="32" width="4" height="4" fill="#CC0000"/>

  <!-- Side Armor Plates Right -->
  <rect x="44" y="28" width="4" height="8" fill="#909090"/>
  <rect x="44" y="32" width="4" height="4" fill="#CC0000"/>
</svg>