<?xml version="1.0" encoding="UTF-8"?>
<svg xmlns="http://www.w3.org/2000/svg" viewBox="0 0 64 64" shape-rendering="crispEdges">
  <!-- 水晶尖端 -->
  <rect x="28" y="4" width="8" height="4" fill="#E040FB"/>
  <rect x="24" y="8" width="16" height="4" fill="#CE93D8"/>
  <!-- 水晶上部 -->
  <rect x="20" y="12" width="24" height="4" fill="#AB47BC"/>
  <rect x="16" y="16" width="32" height="4" fill="#9C27B0"/>
  <rect x="20" y="20" width="24" height="4" fill="#AB47BC"/>
  <!-- 水晶中部 -->
  <rect x="16" y="24" width="32" height="4" fill="#8E24AA"/>
  <rect x="20" y="28" width="24" height="4" fill="#9C27B0"/>
  <!-- 发光核心 -->
  <rect x="24" y="32" width="16" height="4" fill="#E040FB"/>
  <rect x="20" y="36" width="24" height="4" fill="#D500F9"/>
  <rect x="24" y="40" width="16" height="4" fill="#E040FB"/>
  <!-- 水晶下部 -->
  <rect x="20" y="44" width="24" height="4" fill="#8E24AA"/>
  <!-- 底座上层 -->
  <rect x="16" y="48" width="32" height="4" fill="#6A1B9A"/>
  <rect x="16" y="48" width="4" height="4" fill="#4A148C"/>
  <rect x="44" y="48" width="4" height="4" fill="#4A148C"/>
  <!-- 底座中层 -->
  <rect x="12" y="52" width="40" height="4" fill="#4A148C"/>
  <rect x="12" y="52" width="4" height="4" fill="#311B92"/>
  <rect x="48" y="52" width="4" height="4" fill="#311B92"/>
  <!-- 底座下层 -->
  <rect x="8" y="56" width="48" height="4" fill="#311B92"/>
  <rect x="8" y="56" width="4" height="4" fill="#1A0533"/>
  <rect x="52" y="56" width="4" height="4" fill="#1A0533"/>
  <!-- 底座最底层 -->
  <rect x="4" y="60" width="56" height="4" fill="#1A0533"/>
</svg>