<?xml version="1.0" encoding="UTF-8"?>
<svg xmlns="http://www.w3.org/2000/svg" viewBox="0 0 64 64" width="64" height="64" shape-rendering="crispEdges">
  <!-- White #FFFFFF (snowflakes) -->
  <g fill="#FFFFFF">
    <rect x="12" y="0" width="4" height="4"/>
    <rect x="48" y="0" width="4" height="4"/>
    <rect x="4" y="8" width="4" height="4"/>
    <rect x="56" y="8" width="4" height="4"/>
    <rect x="12" y="8" width="4" height="4"/>
    <rect x="48" y="8" width="4" height="4"/>
    <rect x="0" y="12" width="4" height="4"/>
    <rect x="60" y="12" width="4" height="4"/>
    <rect x="24" y="12" width="4" height="4"/>
    <rect x="36" y="12" width="4" height="4"/>
    <rect x="20" y="16" width="4" height="4"/>
    <rect x="40" y="16" width="4" height="4"/>
    <rect x="24" y="20" width="4" height="4"/>
    <rect x="36" y="20" width="4" height="4"/>
    <rect x="20" y="24" width="4" height="4"/>
    <rect x="40" y="24" width="4" height="4"/>
    <rect x="24" y="28" width="4" height="4"/>
    <rect x="36" y="28" width="4" height="4"/>
    <rect x="20" y="32" width="4" height="4"/>
    <rect x="40" y="32" width="4" height="4"/>
    <rect x="24" y="36" width="4" height="4"/>
    <rect x="36" y="36" width="4" height="4"/>
    <rect x="28" y="16" width="8" height="4"/>
    <rect x="28" y="24" width="8" height="4"/>
    <rect x="28" y="32" width="8" height="4"/>
  </g>
  <!-- Cyan #00FFFF -->
  <g fill="#00FFFF">
    <rect x="24" y="4" width="16" height="4"/>
    <rect x="16" y="8" width="8" height="4"/>
    <rect x="40" y="8" width="8" height="4"/>
    <rect x="8" y="12" width="8" height="4"/>
    <rect x="48" y="12" width="8" height="4"/>
    <rect x="12" y="16" width="8" height="4"/>
    <rect x="44" y="16" width="8" height="4"/>
    <rect x="16" y="20" width="8" height="4"/>
    <rect x="40" y="20" width="8" height="4"/>
    <rect x="12" y="24" width="8" height="4"/>
    <rect x="44" y="24" width="8" height="4"/>
    <rect x="16" y="28" width="8" height="4"/>
    <rect x="40" y="28" width="8" height="4"/>
    <rect x="12" y="32" width="8" height="4"/>
    <rect x="44" y="32" width="8" height="4"/>
    <rect x="16" y="36" width="8" height="4"/>
    <rect x="40" y="36" width="8" height="4"/>
    <rect x="20" y="40" width="24" height="4"/>
  </g>
  <!-- Ice Blue #00BFFF -->
  <g fill="#00BFFF">
    <rect x="28" y="4" width="8" height="4"/>
    <rect x="20" y="8" width="4" height="4"/>
    <rect x="40" y="8" width="4" height="4"/>
    <rect x="16" y="12" width="8" height="4"/>
    <rect x="40" y="12" width="8" height="4"/>
    <rect x="20" y="20" width="4" height="4"/>
    <rect x="36" y="20" width="4" height="4"/>
    <rect x="20" y="28" width="4" height="4"/>
    <rect x="36" y="28" width="4" height="4"/>
    <rect x="20" y="36" width="4" height="4"/>
    <rect x="36" y="36" width="4" height="4"/>
    <rect x="24" y="40" width="16" height="4"/>
    <rect x="24" y="44" width="16" height="4"/>
    <rect x="28" y="48" width="8" height="4"/>
  </g>
  <!-- Dark Cyan #008B8B -->
  <g fill="#008B8B">
    <rect x="20" y="44" width="4" height="4"/>
    <rect x="40" y="44" width="4" height="4"/>
    <rect x="24" y="48" width="4" height="4"/>
    <rect x="36" y="48" width="4" height="4"/>
    <rect x="28" y="52" width="8" height="4"/>
  </g>
  <!-- Light Cyan #E0FFFF -->
  <g fill="#E0FFFF">
    <rect x="16" y="4" width="8" height="4"/>
    <rect x="40" y="4" width="8" height="4"/>
    <rect x="20" y="12" width="4" height="4"/>
    <rect x="40" y="12" width="4" height="4"/>
    <rect x="28" y="20" width="8" height="4"/>
    <rect x="28" y="28" width="8" height="4"/>
    <rect x="28" y="36" width="8" height="4"/>
  </g>
</svg>