<?xml version="1.0" encoding="UTF-8"?>
<svg xmlns="http://www.w3.org/2000/svg" viewBox="0 0 64 64" shape-rendering="crispEdges">
  <!-- Base -->
  <rect x="16" y="48" width="32" height="4" fill="#333333"/>
  <rect x="12" y="52" width="8" height="4" fill="#333333"/>
  <rect x="20" y="52" width="24" height="4" fill="#8B0000"/>
  <rect x="44" y="52" width="8" height="4" fill="#333333"/>
  <rect x="8" y="56" width="8" height="4" fill="#333333"/>
  <rect x="16" y="56" width="32" height="4" fill="#8B0000"/>
  <rect x="48" y="56" width="8" height="4" fill="#333333"/>
  <rect x="4" y="60" width="8" height="4" fill="#333333"/>
  <rect x="12" y="60" width="40" height="4" fill="#8B0000"/>
  <rect x="52" y="60" width="8" height="4" fill="#333333"/>

  <!-- Tower Body -->
  <rect x="20" y="44" width="24" height="4" fill="#333333"/>
  <rect x="20" y="28" width="24" height="16" fill="#CC0000"/>
  <rect x="24" y="28" width="16" height="16" fill="#FF2222"/>
  <rect x="16" y="36" width="4" height="8" fill="#8B0000"/>
  <rect x="44" y="36" width="4" height="8" fill="#8B0000"/>

  <!-- Sword Blade Going Up -->
  <rect x="28" y="4" width="8" height="44" fill="#FF4500"/>
  <rect x="30" y="4" width="4" height="44" fill="#FFA500"/>
  <rect x="28" y="4" width="8" height="4" fill="#FF6347"/>
  <rect x="26" y="0" width="12" height="4" fill="#FF6347"/>

  <!-- Cross Guard -->
  <rect x="16" y="40" width="32" height="4" fill="#8B0000"/>
  <rect x="20" y="40" width="24" height="4" fill="#CC0000"/>

  <!-- Flame Decorations Left -->
  <rect x="12" y="12" width="8" height="4" fill="#FF4500"/>
  <rect x="8" y="16" width="4" height="4" fill="#FF6347"/>
  <rect x="12" y="20" width="8" height="4" fill="#FF4500"/>
  <rect x="8" y="24" width="4" height="4" fill="#FF6347"/>
  <rect x="12" y="28" width="8" height="4" fill="#FF4500"/>

  <!-- Flame Decorations Right -->
  <rect x="44" y="12" width="8" height="4" fill="#FF4500"/>
  <rect x="52" y="16" width="4" height="4" fill="#FF6347"/>
  <rect x="44" y="20" width="8" height="4" fill="#FF4500"/>
  <rect x="52" y="24" width="4" height="4" fill="#FF6347"/>
  <rect x="44" y="28" width="8" height="4" fill="#FF4500"/>
</svg>