<?xml version="1.0" encoding="UTF-8"?>
<svg xmlns="http://www.w3.org/2000/svg" viewBox="0 0 64 64" width="64" height="64" shape-rendering="crispEdges">
  <!-- Yellow #FFD700 -->
  <g fill="#FFD700">
    <rect x="16" y="8" width="32" height="4"/>
    <rect x="12" y="12" width="8" height="4"/>
    <rect x="44" y="12" width="8" height="4"/>
    <rect x="8" y="16" width="48" height="4"/>
    <rect x="12" y="20" width="8" height="4"/>
    <rect x="44" y="20" width="8" height="4"/>
    <rect x="16" y="24" width="32" height="4"/>
    <rect x="28" y="36" width="8" height="16"/>
  </g>
  <!-- Dark Yellow #B8860B -->
  <g fill="#B8860B">
    <rect x="12" y="8" width="4" height="4"/>
    <rect x="48" y="8" width="4" height="4"/>
    <rect x="8" y="12" width="4" height="4"/>
    <rect x="52" y="12" width="4" height="4"/>
    <rect x="4" y="16" width="4" height="4"/>
    <rect x="56" y="16" width="4" height="4"/>
    <rect x="8" y="20" width="4" height="4"/>
    <rect x="52" y="20" width="4" height="4"/>
    <rect x="12" y="24" width="4" height="4"/>
    <rect x="48" y="24" width="4" height="4"/>
    <rect x="24" y="28" width="16" height="4"/>
    <rect x="28" y="32" width="8" height="4"/>
  </g>
  <!-- Black #1A1A1A -->
  <g fill="#1A1A1A">
    <rect x="24" y="28" width="4" height="4"/>
    <rect x="36" y="28" width="4" height="4"/>
    <rect x="28" y="32" width="4" height="4"/>
    <rect x="32" y="32" width="4" height="4"/>
    <rect x="24" y="36" width="4" height="16"/>
    <rect x="36" y="36" width="4" height="16"/>
    <rect x="28" y="52" width="8" height="4"/>
  </g>
  <!-- Light Yellow #FFEB3B (lightning) -->
  <g fill="#FFEB3B">
    <rect x="4" y="12" width="4" height="4"/>
    <rect x="56" y="12" width="4" height="4"/>
    <rect x="0" y="16" width="4" height="4"/>
    <rect x="60" y="16" width="4" height="4"/>
    <rect x="4" y="20" width="4" height="4"/>
    <rect x="56" y="20" width="4" height="4"/>
    <rect x="32" y="36" width="4" height="4"/>
  </g>
</svg>